<svg xmlns="http://www.w3.org/2000/svg" id="ISO" viewBox="0 0 2279.19 2279.19" version="1.1"><defs id="defs4"><style id="style2">.cls-2{fill:#fff}.cls-4{fill:#815cb7}</style></defs><g id="g856" transform="matrix(1.84846 -1.7267 -.30318 1.41287 -625.126 1495.193)"><circle cx="1139.595" cy="1139.6" id="circle8" style="stroke-width:.380609px;fill:#19b5fe" r="433.742"/><circle class="cls-2" cx="1396.084" cy="805.325" r="180.051" id="circle14" transform="rotate(15.024)" style="stroke-width:.380609px"/><circle cx="1396.084" cy="805.325" r="168.389" id="circle16" transform="rotate(15.024)" style="stroke-width:.380609px;fill:#bee2e9"/><circle class="cls-2" cx="1396.084" cy="805.325" r="65.202" id="circle18" transform="rotate(15.024)" style="stroke-width:.380609px"/></g><path id="path9198" class="cls-4" d="M2271.221 255.207s-229.416 138.57-410.357 188.972c-180.942 50.401-454.995 89.012-727.97 10.166s-534.678-101.9-741.33-66.953C184.914 422.338.5 486.71.5 486.71s288.98-211.966 541.664-331.068C794.848 36.54 1135.964-6.381 1411.793 15.225c261.045 20.36 633.777 169.825 859.428 239.982Z" style="stroke-width:2.18926px"/><path id="path850" class="cls-4" d="M.5 2016.575s229.416-138.57 410.357-188.971c180.942-50.402 454.996-89.013 727.97-10.166 272.975 78.846 534.679 101.9 741.33 66.953 206.65-34.947 391.064-99.318 391.064-99.318s-288.98 211.965-541.664 331.068c-252.684 119.1-593.8 162.022-869.628 140.416C598.883 2236.198 226.152 2086.733.5 2016.575Z" style="stroke-width:2.18926px"/></svg>